<svg viewBox="0 0 27 27" fill="none" xmlns="http://www.w3.org/2000/svg">
  <path d="M23.0774 23.727C23.0772 22.8309 22.3505 22.1049 21.4543 22.1049C20.5583 22.1051 19.8324 22.831 19.8323 23.727C19.8323 24.6231 20.5583 25.3499 21.4543 25.35C22.3506 25.35 23.0774 24.6232 23.0774 23.727ZM24.3772 23.727C24.3772 25.3412 23.0685 26.6498 21.4543 26.6498C19.8403 26.6497 18.5315 25.3411 18.5315 23.727C18.5316 22.113 19.8404 20.8043 21.4543 20.8041C23.0684 20.8041 24.3771 22.1129 24.3772 23.727Z" fill="#1D1D1B"/>
  <path d="M9.4408 23.727C9.44065 22.8309 8.71387 22.1049 7.81775 22.1049C6.92175 22.1051 6.19582 22.831 6.19568 23.727C6.19568 24.6231 6.92166 25.3499 7.81775 25.35C8.71396 25.35 9.4408 24.6232 9.4408 23.727ZM10.7406 23.727C10.7406 25.3412 9.43193 26.6498 7.81775 26.6498C6.20369 26.6497 4.8949 25.3411 4.8949 23.727C4.89504 22.113 6.20378 20.8043 7.81775 20.8041C9.43184 20.8041 10.7405 22.1129 10.7406 23.727Z" fill="#1D1D1B"/>
  <path d="M3.75867 19.1819V3.27274C3.75867 2.91375 4.05007 2.62234 4.40906 2.62234C4.76804 2.62234 5.05945 2.91375 5.05945 3.27274V19.1819C5.0594 19.5409 4.76801 19.8323 4.40906 19.8323C4.0501 19.8323 3.75871 19.5409 3.75867 19.1819Z" fill="#1D1D1B"/>
  <path d="M21.4542 20.8041L21.5851 20.8178C21.8815 20.8783 22.1046 21.1403 22.1046 21.4545C22.1046 21.7688 21.8815 22.0308 21.5851 22.0912L21.4542 22.1049H6.68176C6.32278 22.1049 6.03137 21.8135 6.03137 21.4545C6.03137 21.0955 6.32278 20.8041 6.68176 20.8041H21.4542Z" fill="#1D1D1B"/>
  <path d="M23.7274 16.2587L23.8583 16.2724C24.1544 16.333 24.3768 16.595 24.3768 16.9091C24.3768 17.2232 24.1544 17.4852 23.8583 17.5458L23.7274 17.5595H4.40906C4.05007 17.5595 3.75867 17.2681 3.75867 16.9091C3.75867 16.5501 4.05007 16.2587 4.40906 16.2587H23.7274Z" fill="#1D1D1B"/>
  <path d="M4.47738 4.89899L26.0682 7.17145L26.1971 7.19879C26.4852 7.29016 26.6792 7.574 26.6463 7.88629C26.6134 8.19874 26.3643 8.43623 26.0633 8.46539L25.9315 8.46442L4.34066 6.19196L4.21175 6.16461C3.92376 6.07318 3.72967 5.78935 3.76253 5.47711C3.79555 5.16481 4.04465 4.92719 4.34554 4.89801L4.47738 4.89899Z" fill="#1D1D1B"/>
  <path d="M25.3496 14.6365V7.81818C25.3496 7.45919 25.641 7.16779 26 7.16779C26.359 7.16779 26.6504 7.45919 26.6504 7.81818V14.6365C26.6503 14.9954 26.3589 15.2859 26 15.2859C25.6411 15.2859 25.3497 14.9954 25.3496 14.6365Z" fill="#1D1D1B"/>
  <path d="M3.75867 19.1818C3.75867 18.8228 4.05007 18.5314 4.40906 18.5314C4.76804 18.5314 5.05945 18.8228 5.05945 19.1818C5.05945 20.0235 5.69612 20.7131 6.5155 20.7961L6.68152 20.8049L6.81238 20.8176C7.1087 20.878 7.33178 21.1401 7.33191 21.4543C7.33191 21.7685 7.10873 22.0305 6.81238 22.091L6.68152 22.1047L6.53113 22.1008C4.98552 22.0225 3.75867 20.7471 3.75867 19.1818Z" fill="#1D1D1B"/>
  <path d="M25.3502 14.6364C25.3502 14.2775 25.6408 13.9861 25.9996 13.986C26.3586 13.986 26.65 14.2774 26.65 14.6364C26.65 16.2522 25.343 17.5592 23.7272 17.5592C23.3682 17.5592 23.0768 17.2678 23.0768 16.9088C23.0769 16.55 23.3683 16.2594 23.7272 16.2594C24.625 16.2594 25.3502 15.5342 25.3502 14.6364Z" fill="#1D1D1B"/>
  <path d="M3.75952 3.27246C3.75939 2.4308 3.12192 1.74104 2.30249 1.6582L2.13647 1.65039L2.00562 1.63672C1.70936 1.57615 1.48608 1.31415 1.48608 1C1.48608 0.641015 1.77749 0.349609 2.13647 0.349609L2.28687 0.353516C3.83252 0.431613 5.05919 1.70722 5.05933 3.27246C5.05933 3.63145 4.76792 3.92285 4.40894 3.92285C4.05007 3.92271 3.75952 3.63136 3.75952 3.27246Z" fill="#1D1D1B"/>
  <path d="M2.13672 0.349609L2.26758 0.363281C2.56366 0.423977 2.78613 0.685967 2.78613 1C2.78613 1.31403 2.56366 1.57602 2.26758 1.63672L2.13672 1.65039H1C0.641015 1.65039 0.349609 1.35899 0.349609 1C0.349609 0.641015 0.641015 0.349609 1 0.349609H2.13672Z" fill="#1D1D1B"/>
</svg>
