<svg viewBox="0 0 25 21">
  <path d="M7.20323 5.48714C7.61719 5.48013 7.95868 5.81044 7.96593 6.22444L7.98448 7.28401C7.99165 7.69809 7.66128 8.03946 7.24718 8.04671C6.83331 8.05372 6.49187 7.72427 6.48448 7.31038L6.46593 6.24983C6.45892 5.83588 6.78923 5.49439 7.20323 5.48714Z" />
  <path d="M24.0675 5.48714C24.4815 5.48013 24.823 5.81042 24.8302 6.22444L24.9601 13.6805C24.9673 14.0946 24.6369 14.436 24.2228 14.4432C23.8088 14.4502 23.4674 14.1208 23.4601 13.7069L23.3302 6.24983C23.3232 5.83585 23.6535 5.49435 24.0675 5.48714Z" />
  <path d="M24.21 12.9436C24.6242 12.9436 24.96 13.2794 24.96 13.6936C24.96 14.1078 24.6242 14.4436 24.21 14.4436H17.8838C17.4696 14.4436 17.1338 14.1078 17.1338 13.6936C17.1338 13.2794 17.4696 12.9436 17.8838 12.9436H24.21Z" />
  <path d="M18.7178 0.15979C19.132 0.15979 19.4678 0.495576 19.4678 0.90979C19.4678 1.324 19.132 1.65979 18.7178 1.65979H12.3916C11.9774 1.65979 11.6416 1.324 11.6416 0.90979C11.6416 0.495576 11.9774 0.15979 12.3916 0.15979H18.7178Z" />
  <path d="M17.8526 11.8837C18.2666 11.8767 18.6081 12.207 18.6153 12.6211L18.6525 14.75C18.6596 15.164 18.3292 15.5054 17.9151 15.5127C17.5013 15.5197 17.1599 15.1901 17.1525 14.7763L17.1153 12.6464C17.1083 12.2325 17.4386 11.891 17.8526 11.8837Z" />
  <path d="M0.987414 11.8837C1.4014 11.8767 1.7429 12.207 1.75011 12.6211L1.87999 20.0771C1.88721 20.4913 1.55684 20.8326 1.14269 20.8398C0.728764 20.8468 0.387316 20.5174 0.379992 20.1035L0.25011 12.6464C0.243098 12.2325 0.573386 11.891 0.987414 11.8837Z" />
  <path d="M12.7256 19.3402C13.1397 19.3403 13.4756 19.676 13.4756 20.0902C13.4756 20.5044 13.1397 20.8401 12.7256 20.8402H1.12988C0.715669 20.8402 0.379883 20.5044 0.379883 20.0902C0.379883 19.676 0.715669 19.3402 1.12988 19.3402H12.7256Z" />
  <path d="M12.5029 6.547C12.9171 6.547 13.2529 6.88278 13.2529 7.297C13.2529 7.71121 12.9171 8.047 12.5029 8.047H6.17676C5.76254 8.047 5.42676 7.71121 5.42676 7.297C5.42676 6.88278 5.76254 6.547 6.17676 6.547H12.5029Z" />
  <path d="M6.12531 13.6936C6.12531 14.1935 5.72453 14.5987 5.23014 14.5987C4.73574 14.5987 4.33496 14.1935 4.33496 13.6936C4.33496 13.1937 4.73574 12.7885 5.23014 12.7885C5.72453 12.7885 6.12531 13.1937 6.12531 13.6936Z" />
  <path d="M10.346 13.6936C10.346 14.1935 9.94523 14.5987 9.45084 14.5987C8.95645 14.5987 8.55566 14.1935 8.55566 13.6936C8.55566 13.1937 8.95645 12.7885 9.45084 12.7885C9.94523 12.7885 10.346 13.1937 10.346 13.6936Z" />
  <path d="M14.5579 13.6936C14.5579 14.1935 14.1571 14.5987 13.6628 14.5987C13.1684 14.5987 12.7676 14.1935 12.7676 13.6936C12.7676 13.1937 13.1684 12.7885 13.6628 12.7885C14.1571 12.7885 14.5579 13.1937 14.5579 13.6936Z" />
  <path d="M18.7188 0.15979C22.0472 0.15979 24.7773 2.87677 24.8301 6.22522C24.8366 6.63924 24.5067 6.98018 24.0928 6.98694C23.6786 6.99346 23.3376 6.66282 23.3311 6.24866C23.2909 3.70719 21.2158 1.65979 18.7188 1.65979C18.3045 1.65979 17.9688 1.324 17.9688 0.90979C17.9688 0.495576 18.3045 0.15979 18.7188 0.15979Z" />
  <path d="M12.3914 0.15979C12.8056 0.15979 13.1414 0.495576 13.1414 0.90979C13.1414 1.324 12.8056 1.65979 12.3914 1.65979C9.90728 1.65989 7.92575 3.68928 7.96562 6.22522C7.97214 6.63932 7.64141 6.98031 7.22734 6.98694C6.81318 6.99346 6.47214 6.66282 6.46562 6.24866C6.41297 2.8948 9.05024 0.159889 12.3914 0.15979Z" />
  <path d="M6.17656 6.5564C6.59077 6.5564 6.92656 6.89218 6.92656 7.3064C6.92656 7.72061 6.59077 8.0564 6.17656 8.0564C3.69243 8.05649 1.71091 10.0859 1.75077 12.6218C1.7573 13.0359 1.42656 13.3769 1.01249 13.3835C0.598331 13.3901 0.257297 13.0594 0.250775 12.6453C0.198124 9.29141 2.83539 6.5565 6.17656 6.5564Z" />
  <path d="M12.5029 6.5564C15.8314 6.5564 18.5614 9.27337 18.6143 12.6218C18.6208 13.0358 18.2909 13.3768 17.877 13.3835C17.4628 13.3901 17.1218 13.0594 17.1152 12.6453C17.075 10.1038 14.9999 8.0564 12.5029 8.0564C12.0887 8.0564 11.7529 7.72061 11.7529 7.3064C11.7529 6.89218 12.0887 6.5564 12.5029 6.5564Z" />
  <path d="M17.8896 14.0129C18.3038 14.0063 18.6448 14.337 18.6514 14.7511C18.7041 18.1052 16.0669 20.84 12.7256 20.84C12.3114 20.84 11.9756 20.5042 11.9756 20.09C11.9757 19.6759 12.3114 19.34 12.7256 19.34C15.2098 19.34 17.1923 17.3106 17.1523 14.7746C17.1459 14.3606 17.4757 14.0196 17.8896 14.0129Z" />
</svg>
