<svg viewBox="0 0 21 23">
  <path d="M15.4707 6.72656C15.4707 3.97609 13.2479 1.75006 10.5107 1.75C7.77355 1.75 5.55078 3.97605 5.55078 6.72656C5.55081 9.47705 7.77357 11.7031 10.5107 11.7031C13.2479 11.7031 15.4707 9.47701 15.4707 6.72656ZM16.9707 6.72656C16.9707 10.3013 14.0804 13.2031 10.5107 13.2031C6.94103 13.2031 4.05081 10.3014 4.05078 6.72656C4.05078 3.15175 6.94101 0.25 10.5107 0.25C14.0804 0.250061 16.9707 3.15179 16.9707 6.72656Z" />
  <path d="M12.4111 11.703C12.8253 11.703 13.1611 12.0388 13.1611 12.453C13.1611 12.8672 12.8253 13.203 12.4111 13.203H8.61035C8.19614 13.203 7.86035 12.8672 7.86035 12.453C7.86035 12.0388 8.19614 11.703 8.61035 11.703H12.4111Z" />
  <path d="M0.25 21.9996V20.0856C0.25 19.6714 0.585786 19.3356 1 19.3356C1.41421 19.3356 1.75 19.6714 1.75 20.0856V21.9996C1.75 22.4138 1.41421 22.7496 1 22.7496C0.585786 22.7496 0.25 22.4138 0.25 21.9996Z" />
  <path d="M19.2715 21.9996V20.0856C19.2715 19.6714 19.6073 19.3356 20.0215 19.3356C20.4357 19.3356 20.7715 19.6714 20.7715 20.0856V21.9996C20.7715 22.4138 20.4357 22.7496 20.0215 22.7496C19.6073 22.7496 19.2715 22.4138 19.2715 21.9996Z" />
  <path d="M0.25 20.0858C0.25 15.4586 3.99123 11.703 8.61035 11.703C9.02456 11.703 9.36035 12.0388 9.36035 12.453C9.36035 12.8672 9.02456 13.203 8.61035 13.203C4.82377 13.203 1.75 16.2829 1.75 20.0858C1.74986 20.4999 1.41412 20.8358 1 20.8358C0.585876 20.8358 0.250145 20.4999 0.25 20.0858Z" />
  <path d="M19.2715 20.0858C19.2715 16.2829 16.1977 13.203 12.4111 13.203C11.9969 13.203 11.6611 12.8672 11.6611 12.453C11.6611 12.0388 11.9969 11.703 12.4111 11.703C17.0303 11.703 20.7715 15.4586 20.7715 20.0858C20.7713 20.4999 20.4356 20.8358 20.0215 20.8358C19.6074 20.8358 19.2716 20.4999 19.2715 20.0858Z" />
  <path d="M20.0215 21.25C20.4357 21.25 20.7715 21.5858 20.7715 22C20.7715 22.4142 20.4357 22.75 20.0215 22.75H1C0.585786 22.75 0.25 22.4142 0.25 22C0.25 21.5858 0.585786 21.25 1 21.25H20.0215Z" />
</svg>
