<svg viewBox="0 0 22 21">
  <path d="M20.4951 19.5014C20.9093 19.5015 21.2451 19.8372 21.2451 20.2514C21.2451 20.6656 20.9093 21.0013 20.4951 21.0014H1C0.585786 21.0014 0.25 20.6656 0.25 20.2514C0.25 19.8372 0.585786 19.5014 1 19.5014H20.4951Z" />
  <path d="M18.3978 12.4384C18.7978 12.3311 19.2094 12.5687 19.3168 12.9687L21.2191 20.0566C21.3265 20.4566 21.0889 20.8681 20.6889 20.9755C20.2891 21.0826 19.8784 20.8459 19.7709 20.4462L17.8676 13.3573C17.7603 12.9573 17.9978 12.5458 18.3978 12.4384Z" />
  <path d="M1.91508 12.9931C2.0089 12.5898 2.41211 12.3389 2.81547 12.4325C3.21869 12.5264 3.46964 12.9296 3.37602 13.3329L1.73051 20.4208C1.63686 20.8243 1.23361 21.076 0.830123 20.9823C0.426815 20.8886 0.176014 20.4853 0.269576 20.0819L1.91508 12.9931Z" />
  <path d="M10.4035 0.00640869C14.2349 0.00640869 17.401 3.10959 17.4621 6.94391C17.492 8.81868 17.0229 10.2962 15.9738 11.8687C14.9662 13.3792 13.4081 14.9942 11.2795 17.1578C11.2609 17.1821 11.2419 17.2067 11.2199 17.2291C11.0736 17.3779 10.8802 17.4522 10.6867 17.4527C10.4935 17.4552 10.2992 17.3841 10.1506 17.2379C10.1283 17.2159 10.1081 17.1925 10.0891 17.1685C5.68846 12.8433 3.62447 10.7344 3.55586 6.9693C3.4859 3.12497 6.56266 0.00664921 10.4035 0.00640869ZM10.4035 1.50641C7.39827 1.50665 5.00126 3.94012 5.05586 6.94196C5.10938 9.87922 6.52446 11.5419 10.6711 15.6343C12.5742 13.6924 13.8792 12.3047 14.7258 11.0357C15.6183 9.69771 15.9878 8.51578 15.9631 6.96735C15.9148 3.95521 13.4186 1.50641 10.4035 1.50641Z" />
  <path d="M10.4663 3.54669C12.3404 3.54669 13.8924 5.06716 13.9223 6.94415C13.9522 8.82714 12.4466 10.3651 10.56 10.3651C8.686 10.3649 7.13391 8.84451 7.10395 6.96759C7.07401 5.08467 8.57985 3.54689 10.4663 3.54669ZM10.4663 5.04669C9.42103 5.04689 8.58722 5.89536 8.60395 6.94415C8.62096 7.99901 9.50225 8.86495 10.56 8.86505C11.6054 8.86505 12.4391 8.0165 12.4223 6.96759C12.4054 5.91262 11.5241 5.04669 10.4663 5.04669Z" />
  <path d="M7.20605 12.413C7.62027 12.413 7.95605 12.7488 7.95605 13.163C7.95605 13.5772 7.62027 13.913 7.20605 13.913H2.64453C2.23032 13.913 1.89453 13.5772 1.89453 13.163C1.89453 12.7488 2.23032 12.413 2.64453 12.413H7.20605Z" />
  <path d="M18.5918 12.413C19.006 12.413 19.3418 12.7488 19.3418 13.163C19.3418 13.5772 19.006 13.913 18.5918 13.913H14.0303C13.6161 13.913 13.2803 13.5772 13.2803 13.163C13.2803 12.7488 13.6161 12.413 14.0303 12.413H18.5918Z" />
</svg>
