<svg viewBox="0 0 20 23">
  <path d="M18.4404 21.21C18.8546 21.2101 19.1904 21.5459 19.1904 21.96C19.1904 22.3742 18.8546 22.7099 18.4404 22.71H1.26074C0.846529 22.71 0.510742 22.3742 0.510742 21.96C0.510742 21.5458 0.846529 21.21 1.26074 21.21H18.4404Z" />
  <path d="M18.1573 5.93652C18.5713 5.92924 18.9135 6.25892 18.921 6.67285L19.1896 21.9473C19.1966 22.3611 18.8671 22.7025 18.4532 22.71C18.0392 22.7172 17.6971 22.3876 17.6896 21.9736L17.421 6.70019C17.4137 6.2862 17.7434 5.94406 18.1573 5.93652Z" />
  <path d="M0.987414 5.93651C1.40153 5.9295 1.74305 6.25969 1.75011 6.67382L2.00988 21.9473C2.01692 22.3613 1.68752 22.7027 1.27355 22.7099C0.859394 22.717 0.51791 22.3868 0.510852 21.9726L0.25011 6.69921C0.243099 6.28509 0.57329 5.94357 0.987414 5.93651Z" />
  <path d="M18.1709 5.93652C18.5851 5.93652 18.9209 6.27231 18.9209 6.68652C18.9209 7.10074 18.5851 7.43652 18.1709 7.43652H1C0.585786 7.43652 0.25 7.10074 0.25 6.68652C0.25 6.27231 0.585786 5.93652 1 5.93652H18.1709Z" />
  <path d="M8.53281 0.210022C8.94698 0.210081 9.28281 0.545845 9.28281 0.960022C9.28281 1.3742 8.94698 1.70996 8.53281 1.71002C6.83859 1.71002 5.50195 3.07705 5.52891 4.76862C5.53547 5.18266 5.20563 5.5236 4.7916 5.53033C4.37744 5.53693 4.03649 5.20621 4.02989 4.79205C3.98988 2.26868 5.99526 0.210022 8.53281 0.210022Z" />
  <path d="M10.4463 0.210022C12.964 0.210022 15.0351 2.25217 15.0752 4.76862C15.0818 5.18261 14.7518 5.52352 14.3379 5.53033C13.9237 5.53693 13.5818 5.20621 13.5752 4.79205C13.5479 3.09357 12.1435 1.71002 10.4463 1.71002C10.0321 1.71002 9.69629 1.37424 9.69629 0.960022C9.69629 0.545808 10.0321 0.210022 10.4463 0.210022Z" />
  <path d="M10.4385 0.218414C10.8526 0.218529 11.1885 0.554271 11.1885 0.968414C11.1885 1.38256 10.8526 1.7183 10.4385 1.71841H8.53223C8.11801 1.71841 7.78223 1.38263 7.78223 0.968414C7.78223 0.554201 8.11801 0.218414 8.53223 0.218414H10.4385Z" />
  <path d="M4.76477 4.03048C5.17876 4.02319 5.5209 4.35288 5.52844 4.76681L5.56164 6.67306C5.56894 7.08719 5.23943 7.4294 4.82531 7.43673C4.41116 7.44403 4.06992 7.11358 4.06262 6.69943L4.02844 4.79416C4.02114 4.38016 4.35083 4.03802 4.76477 4.03048Z" />
  <path d="M14.3116 4.03048C14.7256 4.02319 15.0678 4.35288 15.0753 4.76681L15.1085 6.67306C15.1158 7.08719 14.7863 7.4294 14.3722 7.43673C13.958 7.44403 13.6168 7.11358 13.6095 6.69943L13.5753 4.79416C13.568 4.38016 13.8977 4.03802 14.3116 4.03048Z" />
  <path d="M13.9002 10.9388C14.1904 10.6434 14.6653 10.639 14.9608 10.9291C15.2562 11.2193 15.2607 11.6941 14.9706 11.9896L9.35337 17.7083L9.29673 17.7601C9.024 17.9866 8.62734 17.9902 8.35044 17.7689L8.29282 17.7181L4.40513 13.9056C4.10959 13.6156 4.10543 13.1407 4.39536 12.8451C4.68537 12.5495 5.16023 12.5444 5.45591 12.8343L8.80747 16.1214L13.9002 10.9388Z" />
</svg>
