<svg viewBox="0 0 27 27" fill="none" xmlns="http://www.w3.org/2000/svg">
  <path d="M25 13.1504C25 6.60582 19.695 1.30078 13.1504 1.30078C6.60582 1.30078 1.30078 6.60582 1.30078 13.1504C1.30078 19.695 6.60582 25 13.1504 25C19.695 25 25 19.695 25 13.1504ZM26.3008 13.1504C26.3008 20.4129 20.4129 26.3008 13.1504 26.3008C5.88785 26.3008 0 20.4129 0 13.1504C2.01331e-07 5.88785 5.88785 2.01325e-07 13.1504 0C20.4129 0 26.3008 5.88785 26.3008 13.1504Z" fill="#1D1D1B"/>
  <path d="M16.7179 9.31303C15.8539 7.34291 13.5569 6.44591 11.5867 7.30967C9.61649 8.17373 8.71971 10.4715 9.58378 12.4417C10.448 14.4117 12.7453 15.3078 14.7154 14.4438C16.6853 13.5797 17.5816 11.2831 16.7179 9.31303ZM17.9092 8.7906C19.0612 11.4182 17.8652 14.4826 15.2379 15.6351C12.6102 16.7874 9.54508 15.5917 8.39252 12.9642C7.2401 10.3364 8.43654 7.27083 11.0643 6.11841C13.692 4.96629 16.7568 6.16296 17.9092 8.7906Z" fill="#1D1D1B"/>
  <path d="M4.54541 22.7934V21.1049C4.54541 20.7459 4.83682 20.4545 5.1958 20.4545C5.55479 20.4545 5.84619 20.7459 5.84619 21.1049V22.7934C5.84619 23.1524 5.55479 23.4438 5.1958 23.4438C4.83682 23.4438 4.54541 23.1524 4.54541 22.7934Z" fill="#1D1D1B"/>
  <path d="M20.4545 22.7934V21.1049C20.4545 20.7459 20.7459 20.4545 21.1049 20.4545C21.4638 20.4545 21.7552 20.7459 21.7552 21.1049V22.7934C21.7552 23.1524 21.4638 23.4438 21.1049 23.4438C20.7459 23.4438 20.4545 23.1524 20.4545 22.7934Z" fill="#1D1D1B"/>
  <path d="M20.4553 21.1048C20.4552 18.412 18.3411 16.214 15.6819 16.0794L15.4231 16.0735L15.2922 16.0598C14.996 15.9993 14.7727 15.7373 14.7727 15.4231C14.7727 15.0641 15.0641 14.7727 15.4231 14.7727L15.7493 14.7815C19.0952 14.9512 21.755 17.7166 21.7551 21.1048C21.7551 21.4638 21.4637 21.7552 21.1047 21.7552C20.7458 21.7551 20.4553 21.4637 20.4553 21.1048Z" fill="#1D1D1B"/>
  <path d="M4.54541 21.1048C4.54551 17.6073 7.37996 14.7728 10.8774 14.7727C11.2364 14.7727 11.5278 15.0641 11.5278 15.4231C11.5278 15.7821 11.2364 16.0735 10.8774 16.0735C8.09793 16.0736 5.84629 18.3253 5.84619 21.1048C5.84619 21.4638 5.55479 21.7552 5.1958 21.7552C4.83682 21.7552 4.54541 21.4638 4.54541 21.1048Z" fill="#1D1D1B"/>
  <path d="M15.4236 14.7727L15.5544 14.7864C15.8505 14.8471 16.073 15.1091 16.073 15.4231C16.073 15.7371 15.8505 15.9991 15.5544 16.0598L15.4236 16.0735H10.8777C10.5187 16.0735 10.2273 15.7821 10.2273 15.4231C10.2273 15.0641 10.5187 14.7727 10.8777 14.7727H15.4236Z" fill="#1D1D1B"/>
</svg>
