<svg viewBox="0 0 24 19">
  <path d="M1.21689 15.5005C1.631 15.494 1.97207 15.8247 1.97861 16.2388C1.98909 16.8985 2.53343 17.4273 3.1788 17.4273C3.5928 17.4275 3.9288 17.7632 3.9288 18.1773C3.92856 18.5911 3.59265 18.927 3.1788 18.9273C1.71412 18.9273 0.501955 17.741 0.478609 16.2622C0.472137 15.8481 0.802769 15.5071 1.21689 15.5005Z" />
  <path d="M2.88316 0.0731201C3.2972 0.0733155 3.63316 0.409027 3.63316 0.82312C3.63316 1.23721 3.2972 1.57292 2.88316 1.57312C2.25062 1.57312 1.74024 2.08341 1.75034 2.73718C1.75688 3.15134 1.42622 3.49236 1.01206 3.4989C0.598172 3.50524 0.257053 3.17549 0.250343 2.7616C0.226907 1.27711 1.40574 0.0731201 2.88316 0.0731201Z" />
  <path d="M0.987414 1.99944C1.40156 1.99245 1.7431 2.3226 1.75011 2.73674L1.97765 16.2377C1.98464 16.6519 1.6545 16.9934 1.24034 17.0004C0.82633 17.0072 0.484637 16.6772 0.477648 16.2631L0.250109 2.76213C0.243119 2.34799 0.573276 2.00645 0.987414 1.99944Z" />
  <path d="M22.3633 17.4269C22.7774 17.427 23.1133 17.7627 23.1133 18.1769C23.1133 18.591 22.7774 18.9267 22.3633 18.9269H3.18652C2.77231 18.9269 2.43652 18.5911 2.43652 18.1769C2.43652 17.7627 2.77231 17.4269 3.18652 17.4269H22.3633Z" />
  <path d="M20.1436 0.0731201C20.5577 0.0732242 20.8936 0.408971 20.8936 0.82312C20.8936 1.23727 20.5577 1.57302 20.1436 1.57312H2.88281C2.4686 1.57312 2.13281 1.23733 2.13281 0.82312C2.13281 0.408907 2.4686 0.0731201 2.88281 0.0731201H20.1436Z" />
  <path d="M22.1348 3.92578C22.549 3.92578 22.8848 4.26157 22.8848 4.67578C22.8848 5.08999 22.549 5.42578 22.1348 5.42578H2.9502C2.53598 5.42578 2.2002 5.08999 2.2002 4.67578C2.2002 4.26157 2.53598 3.92578 2.9502 3.92578H22.1348Z" />
  <path d="M22.1222 3.92577C22.5363 3.91878 22.8779 4.24894 22.8849 4.66307L23.1124 18.164C23.1194 18.5782 22.7893 18.9198 22.3751 18.9267C21.9611 18.9336 21.6194 18.6035 21.6124 18.1894L21.3849 4.68846C21.3779 4.27432 21.708 3.93278 22.1222 3.92577Z" />
  <path d="M19.2276 11.4306C19.2276 11.8828 18.863 12.2495 18.4131 12.2495C17.9633 12.2495 17.5986 11.8828 17.5986 11.4306C17.5986 10.9783 17.9633 10.6117 18.4131 10.6117C18.863 10.6117 19.2276 10.9783 19.2276 11.4306Z" />
  <path d="M20.131 0.0731077C20.5449 0.0660954 20.8864 0.396412 20.8937 0.810412L20.961 4.66295C20.9681 5.0768 20.6386 5.41818 20.2247 5.42565C19.8107 5.4329 19.4685 5.10326 19.461 4.68932L19.3937 0.835803C19.3867 0.421855 19.717 0.0803636 20.131 0.0731077Z" />
  <path d="M0.988375 1.99942C1.40248 1.99295 1.74356 2.32358 1.75009 2.7377C1.76057 3.39737 2.30492 3.92618 2.95029 3.92618C3.36429 3.92643 3.70029 4.26212 3.70029 4.67618C3.70005 5.09003 3.36414 5.42593 2.95029 5.42618C1.48561 5.42618 0.273439 4.23988 0.250093 2.76114C0.243622 2.34703 0.574253 2.00596 0.988375 1.99942Z" />
</svg>
