<?xml version="1.0" encoding="UTF-8"?><!DOCTYPE svg PUBLIC "-//W3C//DTD SVG 1.1//EN" "http://www.w3.org/Graphics/SVG/1.1/DTD/svg11.dtd"><svg xmlns="http://www.w3.org/2000/svg" xmlns:xlink="http://www.w3.org/1999/xlink"><symbol id="basket" viewBox="0 0 27 27"><path d="M23.077 23.727a1.623 1.623 0 1 0-3.245.001 1.623 1.623 0 0 0 3.245-.001Zm1.3 0a2.923 2.923 0 1 1-5.846 0 2.923 2.923 0 0 1 5.846 0ZM9.44 23.727a1.623 1.623 0 1 0-3.245.001 1.623 1.623 0 0 0 3.246-.001Zm1.3 0a2.923 2.923 0 1 1-5.845 0 2.923 2.923 0 0 1 5.846 0ZM3.759 19.182V3.272a.65.65 0 0 1 1.3 0v15.91a.65.65 0 0 1-1.3 0Z"/><path d="m21.454 20.804.131.014a.65.65 0 0 1 0 1.273l-.13.014H6.681a.65.65 0 0 1 0-1.3h14.772ZM23.727 16.259l.131.013a.65.65 0 0 1 0 1.274l-.13.014H4.408a.65.65 0 0 1 0-1.301h19.318ZM4.477 4.899l21.591 2.272.13.028a.65.65 0 0 1-.135 1.266h-.131L4.34 6.191l-.13-.027a.65.65 0 0 1 .135-1.267l.131.001Z"/><path d="M25.35 14.636V7.819a.65.65 0 0 1 1.3 0v6.819a.65.65 0 0 1-1.3 0ZM3.759 19.182a.65.65 0 0 1 1.3 0 1.62 1.62 0 0 0 1.457 1.614l.166.009.13.013a.65.65 0 0 1 0 1.273l-.13.014-.15-.004a2.921 2.921 0 0 1-2.773-2.92Z"/><path d="M25.35 14.636a.65.65 0 1 1 1.3 0 2.92 2.92 0 0 1-2.923 2.923.65.65 0 0 1 0-1.3c.898 0 1.623-.725 1.623-1.623ZM3.76 3.272c0-.841-.638-1.531-1.458-1.614l-.166-.008-.13-.013A.65.65 0 0 1 2.136.35l.15.004A2.92 2.92 0 0 1 5.06 3.272a.65.65 0 0 1-1.3 0Z"/><path d="m2.137.35.13.013a.65.65 0 0 1 0 1.274l-.13.013H1a.65.65 0 0 1 0-1.3h1.137Z"/></symbol><symbol id="glass" viewBox="0 0 24 24"><path fill-rule="evenodd" clip-rule="evenodd" d="M13.995 2.057a7.948 7.948 0 1 0 0 15.896 7.948 7.948 0 0 0 0-15.896ZM3.99 10.005C3.99 4.48 8.468 0 13.995 0 19.52 0 24 4.48 24 10.005c0 5.526-4.48 10.005-10.005 10.005-5.526 0-10.005-4.48-10.005-10.005Z"/><path fill-rule="evenodd" clip-rule="evenodd" d="M8.375 15.625a1.029 1.029 0 0 1 0 1.455l-6.62 6.619a1.029 1.029 0 1 1-1.454-1.455l6.62-6.619a1.029 1.029 0 0 1 1.454 0Z"/></symbol><symbol id="link-arrow"><path d="M14 3 9 .113v5.774L14 3ZM0 3.5h9.5v-1H0v1Z"/></symbol><symbol id="user" viewBox="0 0 27 27"><path d="M25 13.15C25 6.606 19.695 1.3 13.15 1.3 6.606 1.3 1.3 6.607 1.3 13.15 1.3 19.695 6.607 25 13.15 25 19.695 25 25 19.695 25 13.15Zm1.3 0c0 7.263-5.887 13.15-13.15 13.15C5.888 26.3 0 20.414 0 13.15 0 5.888 5.888 0 13.15 0 20.413 0 26.3 5.888 26.3 13.15Z"/><path d="M16.718 9.313a3.895 3.895 0 1 0-7.135 3.128 3.895 3.895 0 0 0 7.135-3.128Zm1.191-.522a5.196 5.196 0 1 1-9.518 4.172 5.196 5.196 0 0 1 9.518-4.172ZM4.545 22.793v-1.688a.65.65 0 0 1 1.301 0v1.688a.65.65 0 0 1-1.3 0ZM20.454 22.793v-1.688a.65.65 0 0 1 1.301 0v1.688a.65.65 0 0 1-1.3 0Z"/><path d="M20.455 21.105a5.032 5.032 0 0 0-4.773-5.026l-.259-.006-.13-.013a.65.65 0 0 1 .13-1.287l.326.008a6.331 6.331 0 0 1 6.006 6.324.65.65 0 0 1-1.3 0ZM4.545 21.105a6.332 6.332 0 0 1 6.332-6.332.65.65 0 0 1 0 1.3 5.03 5.03 0 0 0-5.03 5.032.65.65 0 0 1-1.302 0Z"/><path d="m15.424 14.773.13.013a.65.65 0 0 1 0 1.274l-.13.014h-4.546a.65.65 0 0 1 0-1.301h4.546Z"/></symbol></svg>