<?xml version="1.0" encoding="UTF-8"?><!DOCTYPE svg PUBLIC "-//W3C//DTD SVG 1.1//EN" "http://www.w3.org/Graphics/SVG/1.1/DTD/svg11.dtd"><svg xmlns="http://www.w3.org/2000/svg" xmlns:xlink="http://www.w3.org/1999/xlink"><symbol id="arrow-left"><path d="m0 3 5 2.887V.113L0 3Zm36 0v-.5H4.5v1H36V3Z"/></symbol><symbol id="basket" viewBox="0 0 27 27"><path d="M23.077 23.727a1.623 1.623 0 1 0-3.245.001 1.623 1.623 0 0 0 3.245-.001Zm1.3 0a2.923 2.923 0 1 1-5.846 0 2.923 2.923 0 0 1 5.846 0ZM9.44 23.727a1.623 1.623 0 1 0-3.245.001 1.623 1.623 0 0 0 3.246-.001Zm1.3 0a2.923 2.923 0 1 1-5.845 0 2.923 2.923 0 0 1 5.846 0ZM3.759 19.182V3.272a.65.65 0 0 1 1.3 0v15.91a.65.65 0 0 1-1.3 0Z"/><path d="m21.454 20.804.131.014a.65.65 0 0 1 0 1.273l-.13.014H6.681a.65.65 0 0 1 0-1.3h14.772ZM23.727 16.259l.131.013a.65.65 0 0 1 0 1.274l-.13.014H4.408a.65.65 0 0 1 0-1.301h19.318ZM4.477 4.899l21.591 2.272.13.028a.65.65 0 0 1-.135 1.266h-.131L4.34 6.191l-.13-.027a.65.65 0 0 1 .135-1.267l.131.001Z"/><path d="M25.35 14.636V7.819a.65.65 0 0 1 1.3 0v6.819a.65.65 0 0 1-1.3 0ZM3.759 19.182a.65.65 0 0 1 1.3 0 1.62 1.62 0 0 0 1.457 1.614l.166.009.13.013a.65.65 0 0 1 0 1.273l-.13.014-.15-.004a2.921 2.921 0 0 1-2.773-2.92Z"/><path d="M25.35 14.636a.65.65 0 1 1 1.3 0 2.92 2.92 0 0 1-2.923 2.923.65.65 0 0 1 0-1.3c.898 0 1.623-.725 1.623-1.623ZM3.76 3.272c0-.841-.638-1.531-1.458-1.614l-.166-.008-.13-.013A.65.65 0 0 1 2.136.35l.15.004A2.92 2.92 0 0 1 5.06 3.272a.65.65 0 0 1-1.3 0Z"/><path d="m2.137.35.13.013a.65.65 0 0 1 0 1.274l-.13.013H1a.65.65 0 0 1 0-1.3h1.137Z"/></symbol><symbol id="chat" viewBox="0 0 25 21"><path d="M7.203 5.487a.75.75 0 0 1 .763.737l.018 1.06a.75.75 0 0 1-1.5.026l-.018-1.06a.75.75 0 0 1 .737-.763ZM24.067 5.487a.75.75 0 0 1 .763.737l.13 7.457a.75.75 0 0 1-1.5.026l-.13-7.457a.75.75 0 0 1 .738-.763Z"/><path d="M24.21 12.944a.75.75 0 0 1 0 1.5h-6.326a.75.75 0 0 1 0-1.5h6.326ZM18.718.16a.75.75 0 0 1 0 1.5h-6.326a.75.75 0 0 1 0-1.5h6.326Z"/><path d="M17.853 11.884a.75.75 0 0 1 .762.737l.038 2.129a.75.75 0 0 1-1.5.026l-.038-2.13a.75.75 0 0 1 .738-.762ZM.987 11.884a.75.75 0 0 1 .763.737l.13 7.456a.75.75 0 0 1-1.5.026l-.13-7.457a.75.75 0 0 1 .737-.762Z"/><path d="M12.726 19.34a.75.75 0 0 1 0 1.5H1.13a.75.75 0 0 1 0-1.5h11.596ZM12.503 6.547a.75.75 0 0 1 0 1.5H6.177a.75.75 0 1 1 0-1.5h6.326ZM6.125 13.694a.9.9 0 0 1-.895.905.9.9 0 0 1-.895-.905c0-.5.4-.905.895-.905a.9.9 0 0 1 .895.905ZM10.346 13.694a.9.9 0 0 1-.895.905.9.9 0 0 1-.895-.905c0-.5.4-.905.895-.905a.9.9 0 0 1 .895.905ZM14.558 13.694a.9.9 0 0 1-.895.905.9.9 0 0 1-.895-.905c0-.5.4-.905.895-.905a.9.9 0 0 1 .895.905ZM18.719.16c3.328 0 6.058 2.717 6.111 6.065a.75.75 0 1 1-1.499.024c-.04-2.542-2.115-4.59-4.612-4.59a.75.75 0 1 1 0-1.5Z"/><path d="M12.391.16a.75.75 0 0 1 0 1.5c-2.484 0-4.465 2.03-4.425 4.565a.75.75 0 0 1-1.5.024C6.413 2.895 9.05.159 12.39.159Z"/><path d="M6.177 6.556a.75.75 0 1 1 0 1.5c-2.485 0-4.466 2.03-4.426 4.566a.75.75 0 0 1-1.5.023C.198 9.291 2.835 6.557 6.177 6.556ZM12.503 6.556c3.328 0 6.058 2.717 6.111 6.066a.75.75 0 1 1-1.499.023c-.04-2.541-2.115-4.589-4.612-4.589a.75.75 0 0 1 0-1.5ZM17.89 14.013a.75.75 0 0 1 .761.738c.053 3.354-2.584 6.089-5.925 6.089a.75.75 0 0 1 0-1.5c2.484 0 4.466-2.03 4.426-4.565a.75.75 0 0 1 .738-.762Z"/></symbol><symbol id="dashboard" viewBox="0 0 21 23"><path d="M15.47 6.727c0-2.75-2.222-4.977-4.96-4.977-2.736 0-4.96 2.226-4.96 4.977 0 2.75 2.224 4.976 4.96 4.976 2.738 0 4.96-2.226 4.96-4.976Zm1.5 0c0 3.574-2.89 6.476-6.46 6.476-3.569 0-6.46-2.902-6.46-6.476C4.05 3.152 6.942.25 10.51.25c3.57 0 6.46 2.902 6.46 6.477Z"/><path d="M12.411 11.703a.75.75 0 0 1 0 1.5h-3.8a.75.75 0 0 1 0-1.5h3.8ZM.25 22v-1.914a.75.75 0 0 1 1.5 0V22a.75.75 0 0 1-1.5 0ZM19.271 22v-1.914a.75.75 0 0 1 1.5 0V22a.75.75 0 0 1-1.5 0Z"/><path d="M.25 20.086c0-4.627 3.741-8.383 8.36-8.383a.75.75 0 0 1 0 1.5c-3.786 0-6.86 3.08-6.86 6.883a.75.75 0 0 1-1.5 0ZM19.271 20.086c0-3.803-3.073-6.883-6.86-6.883a.75.75 0 0 1 0-1.5c4.62 0 8.36 3.756 8.36 8.383a.75.75 0 0 1-1.5 0ZM20.021 21.25a.75.75 0 0 1 0 1.5H1a.75.75 0 0 1 0-1.5h19.021Z"/></symbol><symbol id="glass" viewBox="0 0 24 24"><path fill-rule="evenodd" clip-rule="evenodd" d="M13.995 2.057a7.948 7.948 0 1 0 0 15.896 7.948 7.948 0 0 0 0-15.896ZM3.99 10.005C3.99 4.48 8.468 0 13.995 0 19.52 0 24 4.48 24 10.005c0 5.526-4.48 10.005-10.005 10.005-5.526 0-10.005-4.48-10.005-10.005Z"/><path fill-rule="evenodd" clip-rule="evenodd" d="M8.375 15.625a1.029 1.029 0 0 1 0 1.455l-6.62 6.619a1.029 1.029 0 1 1-1.454-1.455l6.62-6.619a1.029 1.029 0 0 1 1.454 0Z"/></symbol><symbol id="link-arrow"><path d="M14 3 9 .113v5.774L14 3ZM0 3.5h9.5v-1H0v1Z"/></symbol><symbol id="location" viewBox="0 0 22 21"><path d="M20.495 19.501a.75.75 0 0 1 0 1.5H1a.75.75 0 0 1 0-1.5h19.495Z"/><path d="M18.398 12.438a.75.75 0 0 1 .919.53l1.902 7.089a.75.75 0 0 1-1.448.39l-1.903-7.09a.75.75 0 0 1 .53-.919ZM1.915 12.993a.75.75 0 0 1 1.461.34L1.731 20.42a.75.75 0 0 1-1.461-.34l1.645-7.088ZM10.403.006c3.832 0 6.998 3.104 7.06 6.938.029 1.875-.44 3.352-1.49 4.925-1.007 1.51-2.565 3.125-4.694 5.289a.748.748 0 0 1-.593.295.748.748 0 0 1-.597-.284c-4.4-4.326-6.465-6.435-6.533-10.2A6.825 6.825 0 0 1 10.403.006Zm0 1.5a5.325 5.325 0 0 0-5.347 5.436c.053 2.937 1.468 4.6 5.615 8.692 1.903-1.942 3.208-3.33 4.055-4.598.892-1.338 1.262-2.52 1.237-4.069-.048-3.012-2.544-5.46-5.56-5.46Z"/><path d="M10.466 3.547a3.469 3.469 0 0 1 3.456 3.397 3.358 3.358 0 0 1-3.362 3.421 3.469 3.469 0 0 1-3.456-3.397 3.358 3.358 0 0 1 3.362-3.421Zm0 1.5c-1.045 0-1.879.848-1.862 1.897a1.969 1.969 0 0 0 1.956 1.921c1.045 0 1.88-.848 1.862-1.897a1.968 1.968 0 0 0-1.956-1.921ZM7.206 12.413a.75.75 0 0 1 0 1.5H2.645a.75.75 0 0 1 0-1.5h4.561ZM18.592 12.413a.75.75 0 0 1 0 1.5H14.03a.75.75 0 0 1 0-1.5h4.562Z"/></symbol><symbol id="lock" viewBox="0 0 20 23"><path d="M18.44 21.21a.75.75 0 0 1 0 1.5H1.26a.75.75 0 0 1 0-1.5h17.18Z"/><path d="M18.157 5.937a.75.75 0 0 1 .764.736l.269 15.274a.75.75 0 0 1-1.5.027L17.42 6.7a.75.75 0 0 1 .736-.763ZM.987 5.937a.75.75 0 0 1 .763.737l.26 15.273a.75.75 0 1 1-1.5.026L.25 6.699a.75.75 0 0 1 .737-.762Z"/><path d="M18.17 5.937a.75.75 0 0 1 0 1.5H1a.75.75 0 1 1 0-1.5h17.17ZM8.533.21a.75.75 0 0 1 0 1.5 2.991 2.991 0 0 0-3.004 3.059.75.75 0 1 1-1.5.023A4.49 4.49 0 0 1 8.534.21ZM10.446.21c2.518 0 4.59 2.042 4.63 4.559a.75.75 0 1 1-1.5.023 3.146 3.146 0 0 0-3.13-3.082.75.75 0 0 1 0-1.5Z"/><path d="M10.438.218a.75.75 0 0 1 0 1.5H8.532a.75.75 0 1 1 0-1.5h1.906ZM4.765 4.03a.75.75 0 0 1 .763.737l.034 1.906a.75.75 0 1 1-1.5.026l-.034-1.905a.75.75 0 0 1 .737-.764ZM14.312 4.03a.75.75 0 0 1 .763.737l.034 1.906a.75.75 0 1 1-1.5.026l-.034-1.905a.75.75 0 0 1 .737-.764ZM13.9 10.939a.75.75 0 0 1 1.07 1.05l-5.617 5.72-.056.051a.75.75 0 0 1-.947.009l-.057-.05-3.888-3.813a.75.75 0 0 1 1.05-1.072l3.352 3.287L13.9 10.94Z"/></symbol><symbol id="signal"><path d="M13.65 12h-1.3V0h1.3v12ZM9.65 12h-1.3V2h1.3v10ZM5.65 12h-1.3V4h1.3v8ZM1.65 12H.35V7h1.3v5Z"/></symbol><symbol id="slider-next"><path d="m17.647 3-5-2.887v5.774l5-2.887ZM0 3v.5h13.147v-1H0V3Z"/></symbol><symbol id="slider-prev"><path d="m.765 3 5 2.887V.113L.765 3Zm17.647-.5H5.265v1h13.147v-1Z"/></symbol><symbol id="trash"><path d="m14.745 5.35-.101.738-1.577 11.562H2.933L1.356 6.088l-.101-.738h13.49Zm-10.679 11h7.868l1.322-9.7H2.744l1.322 9.7ZM16 2.35v1.3H0v-1.3h16Z"/><path d="M11.65.35V3h-1.3V1.65h-4.7V3h-1.3V.35h7.3Z"/></symbol><symbol id="user" viewBox="0 0 27 27"><path d="M25 13.15C25 6.606 19.695 1.3 13.15 1.3 6.606 1.3 1.3 6.607 1.3 13.15 1.3 19.695 6.607 25 13.15 25 19.695 25 25 19.695 25 13.15Zm1.3 0c0 7.263-5.887 13.15-13.15 13.15C5.888 26.3 0 20.414 0 13.15 0 5.888 5.888 0 13.15 0 20.413 0 26.3 5.888 26.3 13.15Z"/><path d="M16.718 9.313a3.895 3.895 0 1 0-7.135 3.128 3.895 3.895 0 0 0 7.135-3.128Zm1.191-.522a5.196 5.196 0 1 1-9.518 4.172 5.196 5.196 0 0 1 9.518-4.172ZM4.545 22.793v-1.688a.65.65 0 0 1 1.301 0v1.688a.65.65 0 0 1-1.3 0ZM20.454 22.793v-1.688a.65.65 0 0 1 1.301 0v1.688a.65.65 0 0 1-1.3 0Z"/><path d="M20.455 21.105a5.032 5.032 0 0 0-4.773-5.026l-.259-.006-.13-.013a.65.65 0 0 1 .13-1.287l.326.008a6.331 6.331 0 0 1 6.006 6.324.65.65 0 0 1-1.3 0ZM4.545 21.105a6.332 6.332 0 0 1 6.332-6.332.65.65 0 0 1 0 1.3 5.03 5.03 0 0 0-5.03 5.032.65.65 0 0 1-1.302 0Z"/><path d="m15.424 14.773.13.013a.65.65 0 0 1 0 1.274l-.13.014h-4.546a.65.65 0 0 1 0-1.301h4.546Z"/></symbol><symbol id="wallet" viewBox="0 0 24 19"><path d="M1.217 15.5a.75.75 0 0 1 .762.739 1.21 1.21 0 0 0 1.2 1.188.75.75 0 0 1 0 1.5 2.71 2.71 0 0 1-2.7-2.665.75.75 0 0 1 .738-.761ZM2.883.073a.75.75 0 0 1 0 1.5c-.632 0-1.143.51-1.133 1.164a.75.75 0 0 1-1.5.025A2.632 2.632 0 0 1 2.883.073Z"/><path d="M.987 2a.75.75 0 0 1 .763.737l.228 13.5a.75.75 0 0 1-1.5.026L.25 2.763a.75.75 0 0 1 .737-.764ZM22.363 17.427a.75.75 0 0 1 0 1.5H3.187a.75.75 0 0 1 0-1.5h19.176ZM20.144.073a.75.75 0 0 1 0 1.5H2.883a.75.75 0 0 1 0-1.5h17.26ZM22.135 3.926a.75.75 0 0 1 0 1.5H2.95a.75.75 0 1 1 0-1.5h19.185Z"/><path d="M22.122 3.926a.75.75 0 0 1 .763.737l.227 13.501a.75.75 0 1 1-1.5.025l-.227-13.5a.75.75 0 0 1 .737-.763ZM19.228 11.43a.817.817 0 0 1-.815.82.817.817 0 0 1-.814-.82c0-.452.364-.818.814-.818.45 0 .815.366.815.819ZM20.131.073a.75.75 0 0 1 .763.737l.067 3.853a.75.75 0 0 1-1.5.026L19.394.836a.75.75 0 0 1 .737-.763ZM.988 2a.75.75 0 0 1 .762.738 1.21 1.21 0 0 0 1.2 1.188.75.75 0 0 1 0 1.5 2.71 2.71 0 0 1-2.7-2.665A.75.75 0 0 1 .988 2Z"/></symbol></svg>