<?xml version="1.0" encoding="UTF-8"?><!DOCTYPE svg PUBLIC "-//W3C//DTD SVG 1.1//EN" "http://www.w3.org/Graphics/SVG/1.1/DTD/svg11.dtd"><svg xmlns="http://www.w3.org/2000/svg" xmlns:xlink="http://www.w3.org/1999/xlink"><symbol id="glass-test"><path fill-rule="evenodd" clip-rule="evenodd" d="M12.818 1.75a7.432 7.432 0 1 0 0 14.864 7.432 7.432 0 0 0 0-14.864ZM3.886 9.182a8.932 8.932 0 1 1 17.864 0 8.932 8.932 0 0 1-17.864 0Z"/><path fill-rule="evenodd" clip-rule="evenodd" d="M7.563 14.437a.75.75 0 0 1 0 1.06L1.53 21.53a.75.75 0 0 1-1.06-1.06l6.032-6.033a.75.75 0 0 1 1.061 0Z"/></symbol><symbol id="glass" viewBox="0 0 24 24"><path fill-rule="evenodd" clip-rule="evenodd" d="M13.995 2.057a7.948 7.948 0 1 0 0 15.896 7.948 7.948 0 0 0 0-15.896ZM3.99 10.005C3.99 4.48 8.468 0 13.995 0 19.52 0 24 4.48 24 10.005c0 5.526-4.48 10.005-10.005 10.005-5.526 0-10.005-4.48-10.005-10.005Z"/><path fill-rule="evenodd" clip-rule="evenodd" d="M8.375 15.625a1.029 1.029 0 0 1 0 1.455l-6.62 6.619a1.029 1.029 0 1 1-1.454-1.455l6.62-6.619a1.029 1.029 0 0 1 1.454 0Z"/></symbol></svg>