<svg width="27" height="27" viewBox="0 0 27 27" fill="none" xmlns="http://www.w3.org/2000/svg">
<g clip-path="url(#clip0_34_1397)">
<path d="M13.5 27C20.9558 27 27 20.9558 27 13.5C27 6.04416 20.9558 0 13.5 0C6.04416 0 0 6.04416 0 13.5C0 20.9558 6.04416 27 13.5 27Z" fill="url(#paint0_linear_34_1397)"/>
<path d="M6.11152 13.3573C10.046 11.6422 12.6713 10.5095 13.984 9.96103C17.7334 8.40216 18.5128 8.13047 19.0206 8.12198C19.2074 8.11858 19.3908 8.17292 19.5436 8.2782C19.6506 8.3716 19.7202 8.50235 19.7355 8.6433C19.7627 8.8199 19.7694 8.9982 19.7576 9.17481C19.5538 11.3093 18.6759 16.4903 18.2293 18.8812C18.0408 19.9001 17.6672 20.2397 17.3072 20.2652C16.5227 20.3365 15.9283 19.7473 15.1693 19.2463C13.9806 18.4669 13.3098 17.9829 12.1568 17.2222C10.8238 16.3442 11.6881 15.8637 12.4472 15.0724C12.6459 14.8652 16.0998 11.7237 16.1677 11.4384C16.1864 11.3535 16.1627 11.2635 16.1049 11.199C16.0217 11.1463 15.9164 11.1361 15.8247 11.1718C15.7059 11.199 13.8074 12.4539 10.131 14.9348C9.59265 15.305 9.10359 15.485 8.66718 15.4748C8.18492 15.4646 7.25775 15.2031 6.56831 14.979C5.71925 14.7039 5.0502 14.5595 5.10963 14.0925C5.1385 13.8565 5.47133 13.612 6.11152 13.3573Z" fill="white"/>
</g>
<defs>
<linearGradient id="paint0_linear_34_1397" x1="14.0094" y1="0.424528" x2="14.0094" y2="27.5943" gradientUnits="userSpaceOnUse">
<stop stop-color="#2AABEE"/>
<stop offset="1" stop-color="#229ED9"/>
</linearGradient>
<clipPath id="clip0_34_1397">
<rect width="27" height="27" fill="white"/>
</clipPath>
</defs>
</svg>
