<svg width="27" height="27" viewBox="0 0 27 27" fill="none" xmlns="http://www.w3.org/2000/svg">
<g clip-path="url(#clip0_34_1395)">
<path d="M27 13.4983C27 20.9517 20.9549 27 13.5 27C6.04514 27 0 20.9517 0 13.4983C0 6.04494 6.0431 0 13.5 0C20.9569 0 27 6.04494 27 13.4983Z" fill="#0D9F16"/>
<path fill-rule="evenodd" clip-rule="evenodd" d="M21.3126 11.6175C20.4324 7.9666 17.291 5.47648 13.4939 5.43335C12.9939 5.4415 12.4704 5.4826 11.9527 5.59127C6.65557 6.6638 3.91053 12.5355 6.49286 17.2763C6.55944 17.4034 6.56454 17.5059 6.52785 17.637C6.18442 18.8868 5.84439 20.1366 5.50232 21.382C5.46541 21.5188 5.51523 21.5694 5.65179 21.5338C6.94805 21.1939 8.24193 20.8577 9.53717 20.5136C9.64451 20.4847 9.72876 20.497 9.82693 20.5462C11.4952 21.3983 13.2524 21.6486 15.0925 21.292C19.4891 20.4396 22.3622 15.9691 21.3129 11.6175H21.3126ZM14.6149 20.0093C14.2531 20.0707 13.8896 20.1034 13.698 20.0996C12.2893 20.0955 11.1405 19.78 10.0841 19.1409C9.94888 19.0587 9.83101 19.0383 9.67305 19.0794C8.96309 19.276 8.2477 19.4523 7.53673 19.6404C7.38727 19.6856 7.373 19.6527 7.41071 19.5175C7.59923 18.8417 7.77655 18.1695 7.9712 17.5015C8.02521 17.313 8.00618 17.1697 7.8985 17.0016C6.43749 14.6538 6.49898 11.7283 8.13425 9.55637C9.83304 7.29448 12.1426 6.36867 14.906 6.9586C17.6293 7.53222 19.3651 9.2901 20.0034 11.9986C20.8754 15.7029 18.3606 19.3864 14.6149 20.0093Z" fill="#FCFCFC"/>
<path fill-rule="evenodd" clip-rule="evenodd" d="M15.5901 17.2848C15.3044 17.2971 15.0317 17.2315 14.7582 17.1578C12.9191 16.6294 11.539 15.478 10.4302 13.962C10.011 13.3924 9.62311 12.8025 9.49403 12.0934C9.33913 11.2409 9.58405 10.5199 10.2183 9.92963C10.42 9.74521 11.0349 9.66336 11.2808 9.78223C11.3722 9.8274 11.4303 9.90925 11.4683 9.99552C11.7007 10.5488 11.9303 11.0935 12.1579 11.6468C12.201 11.7534 12.1823 11.8556 12.1344 11.9623C12.0176 12.2163 11.8301 12.4211 11.6395 12.6218C11.4951 12.7696 11.4887 12.9047 11.5954 13.081C12.2448 14.1627 13.1437 14.9496 14.319 15.4206C14.4943 15.4903 14.6264 15.4658 14.7429 15.3184C14.9386 15.0766 15.1455 14.8348 15.3309 14.5848C15.458 14.4086 15.6034 14.3841 15.7827 14.466C16.171 14.6422 16.5593 14.8266 16.9479 15.0111C17.0348 15.0481 17.1211 15.0933 17.2071 15.134C17.6004 15.3306 17.5967 15.3347 17.5627 15.7691C17.4972 16.6171 16.8609 17.0356 16.1068 17.2444C15.9407 17.2893 15.7644 17.2937 15.5905 17.2852L15.5901 17.2848Z" fill="#FDFDFD"/>
</g>
<defs>
<clipPath id="clip0_34_1395">
<rect width="27" height="27" fill="white"/>
</clipPath>
</defs>
</svg>
